<svg width="24" height="16" viewBox="0 0 24 16" fill="none" xmlns="http://www.w3.org/2000/svg">
<path d="M11.05 5.048H5.87V7.736H9.93V9.024H5.87V13H4.372V3.76H11.05V5.048ZM16.6966 3.76C17.6859 3.76 18.4699 4.00733 19.0486 4.502C19.6366 4.99667 19.9306 5.664 19.9306 6.504C19.9306 7.372 19.6366 8.044 19.0486 8.52C18.4699 8.98667 17.6859 9.22 16.6966 9.22L16.5566 9.304H14.4146V13H12.9306V3.76H16.6966ZM16.5846 8.058C17.1913 8.058 17.6393 7.93667 17.9286 7.694C18.2273 7.442 18.3766 7.05933 18.3766 6.546C18.3766 6.042 18.2273 5.664 17.9286 5.412C17.6393 5.16 17.1913 5.034 16.5846 5.034H14.4146V8.058H16.5846ZM17.4666 8.366L20.4766 13H18.7546L16.1786 8.954L17.4666 8.366Z" fill="white"/>
</svg>
