<svg width="579" height="579" viewBox="0 0 579 579" fill="none" xmlns="http://www.w3.org/2000/svg">
<g clip-path="url(#clip0_1_486)">
<rect width="579" height="579" rx="289.5" fill="#93C5FD"/>
<g clip-path="url(#clip1_1_486)">
<circle cx="162.844" cy="334.734" r="45.2344" fill="#BB745E"/>
<path d="M162.844 370.922H316.641V595.922C316.641 595.922 283.684 615.188 239.742 615.188C195.8 615.188 162.844 583.728 162.844 583.728V370.922Z" fill="#BB745E"/>
<path d="M314.934 480.499C314.934 529.214 307.053 524.602 255.824 524.602C204.596 524.602 180.952 485.111 180.952 436.397C180.952 387.682 179.007 343.781 220.358 343.781C337.267 348.089 314.934 431.785 314.934 480.499Z" fill="#A26C5E"/>
<path d="M415.123 326.585C415.123 407.305 402.586 506.563 303.07 506.563C203.555 506.563 157.673 407.305 157.673 326.585C135.703 230.695 140.226 117.609 289.5 117.609C438.774 117.609 415.123 245.865 415.123 326.585Z" fill="#BD7A66"/>
<rect x="325.688" y="370.922" width="27.1406" height="18.0938" rx="9.04688" fill="#BB745E"/>
</g>
<g clip-path="url(#clip2_1_486)">
<g clip-path="url(#clip3_1_486)">
<rect x="63.3281" y="542.812" width="361.875" height="208.078" rx="81.4219" fill="#E05A33"/>
<path d="M153.797 524.719H325.688V551.859C325.688 551.859 280.453 560.906 239.742 560.906C199.031 560.906 153.797 551.859 153.797 551.859V524.719Z" fill="#E05A33"/>
<path d="M153.797 524.719H325.688V542.812C325.688 542.812 298.547 556.383 239.742 556.383C180.938 556.383 153.797 542.812 153.797 542.812V524.719Z" fill="#C53926"/>
<path d="M149.273 533.766C149.273 523.773 157.374 515.672 167.367 515.672H312.117C322.11 515.672 330.211 523.773 330.211 533.766C330.211 533.766 284.977 542.812 239.742 542.812C194.508 542.812 149.273 533.766 149.273 533.766Z" fill="#E05A33"/>
</g>
</g>
<mask id="path-12-inside-1_1_486" fill="white">
<path fill-rule="evenodd" clip-rule="evenodd" d="M262.042 237.038C312.805 253.892 383.169 277.253 456.867 203.554C493.055 167.367 330.211 13.5702 199.031 99.5154C96.5007 114.705 102.36 176.141 106.882 223.554C107.747 232.619 108.563 241.171 108.563 248.789C108.563 253.61 109.193 257.218 110.375 259.81C108.92 270.966 108.562 282.129 108.562 289.5C108.562 309.486 124.764 325.688 144.75 325.688C164.736 325.688 180.938 309.486 180.938 289.5C200.923 289.5 217.125 273.298 217.125 253.313C217.125 250.182 216.728 247.145 215.98 244.248C216.36 244.26 216.742 244.266 217.125 244.266C228.196 244.266 238.106 239.294 244.744 231.462C250.213 233.111 255.988 235.028 262.042 237.038Z"/>
</mask>
<path fill-rule="evenodd" clip-rule="evenodd" d="M262.042 237.038C312.805 253.892 383.169 277.253 456.867 203.554C493.055 167.367 330.211 13.5702 199.031 99.5154C96.5007 114.705 102.36 176.141 106.882 223.554C107.747 232.619 108.563 241.171 108.563 248.789C108.563 253.61 109.193 257.218 110.375 259.81C108.92 270.966 108.562 282.129 108.562 289.5C108.562 309.486 124.764 325.688 144.75 325.688C164.736 325.688 180.938 309.486 180.938 289.5C200.923 289.5 217.125 273.298 217.125 253.313C217.125 250.182 216.728 247.145 215.98 244.248C216.36 244.26 216.742 244.266 217.125 244.266C228.196 244.266 238.106 239.294 244.744 231.462C250.213 233.111 255.988 235.028 262.042 237.038Z" fill="black"/>
<path d="M456.867 203.554L456.16 202.847L456.867 203.554ZM262.042 237.038L262.357 236.089L262.042 237.038ZM199.031 99.5154L199.178 100.505L199.395 100.472L199.579 100.352L199.031 99.5154ZM106.882 223.554L107.878 223.459L106.882 223.554ZM110.375 259.81L111.366 259.939L111.403 259.656L111.285 259.395L110.375 259.81ZM180.938 289.5V288.5H179.938V289.5H180.938ZM215.98 244.248L216.011 243.248L214.679 243.207L215.012 244.498L215.98 244.248ZM244.744 231.462L245.033 230.504L244.405 230.315L243.981 230.815L244.744 231.462ZM456.16 202.847C419.482 239.526 383.702 251.999 350.816 253.254C317.874 254.511 287.757 244.522 262.357 236.089L261.727 237.987C287.089 246.408 317.536 256.526 350.892 255.252C384.303 253.977 420.555 241.281 457.574 204.262L456.16 202.847ZM199.579 100.352C264.722 57.6725 337.786 74.4695 390.189 106.588C416.385 122.643 437.332 142.481 449.465 160.504C455.534 169.521 459.358 178.025 460.572 185.333C461.783 192.623 460.388 198.62 456.16 202.847L457.574 204.262C462.394 199.442 463.826 192.716 462.545 185.005C461.267 177.312 457.282 168.535 451.124 159.387C438.801 141.082 417.624 121.057 391.234 104.883C338.468 72.5419 264.521 55.4131 198.483 98.679L199.579 100.352ZM107.878 223.459C105.611 199.694 103.067 172.768 113.719 149.873C124.315 127.097 148.113 108.07 199.178 100.505L198.885 98.5262C147.419 106.151 122.882 125.436 111.905 149.029C100.985 172.503 103.631 200.001 105.887 223.649L107.878 223.459ZM109.563 248.789C109.563 241.114 108.741 232.511 107.878 223.459L105.887 223.649C106.753 232.726 107.563 241.228 107.563 248.789H109.563ZM111.285 259.395C110.186 256.987 109.563 253.54 109.563 248.789H107.563C107.563 253.679 108.199 257.449 109.465 260.225L111.285 259.395ZM109.383 259.681C107.921 270.894 107.562 282.103 107.562 289.5H109.562C109.562 282.155 109.919 271.038 111.366 259.939L109.383 259.681ZM107.562 289.5C107.562 310.038 124.212 326.688 144.75 326.688V324.688C125.316 324.688 109.562 308.934 109.562 289.5H107.562ZM144.75 326.688C165.288 326.688 181.938 310.038 181.938 289.5H179.938C179.938 308.934 164.184 324.688 144.75 324.688V326.688ZM180.938 290.5C201.476 290.5 218.125 273.851 218.125 253.313H216.125C216.125 272.746 200.371 288.5 180.938 288.5V290.5ZM218.125 253.313C218.125 250.097 217.717 246.976 216.949 243.998L215.012 244.498C215.738 247.314 216.125 250.267 216.125 253.313H218.125ZM215.949 245.247C216.34 245.26 216.732 245.266 217.125 245.266V243.266C216.752 243.266 216.381 243.26 216.011 243.248L215.949 245.247ZM217.125 245.266C228.502 245.266 238.687 240.155 245.507 232.108L243.981 230.815C237.525 238.433 227.89 243.266 217.125 243.266V245.266ZM262.357 236.089C256.306 234.08 250.517 232.158 245.033 230.504L244.455 232.419C249.908 234.064 255.67 235.976 261.727 237.987L262.357 236.089Z" fill="black" mask="url(#path-12-inside-1_1_486)"/>
<g clip-path="url(#clip4_1_486)">
<rect x="271.406" y="316.641" width="27.1406" height="36.1875" rx="13.5703" fill="black"/>
<rect x="361.875" y="316.641" width="27.1406" height="36.1875" rx="13.5703" fill="black"/>
</g>
<g clip-path="url(#clip5_1_486)">
<path d="M261.713 416.156C261.713 411.16 265.764 407.109 270.76 407.109H353.474C358.471 407.109 362.521 411.16 362.521 416.156C362.521 441.139 342.269 461.391 317.287 461.391H306.948C281.965 461.391 261.713 441.139 261.713 416.156Z" fill="#66253C"/>
<path fill-rule="evenodd" clip-rule="evenodd" d="M332.515 458.763C327.757 460.464 322.63 461.391 317.287 461.391H306.948C282.571 461.391 262.698 442.109 261.749 417.965C268.661 415.378 278.92 415.676 289.047 415.97C292.264 416.063 295.468 416.156 298.547 416.156C318.533 416.156 334.734 430.333 334.734 447.82C334.734 451.667 333.951 455.353 332.515 458.763Z" fill="#B03E67"/>
<path d="M271.406 407.109H361.875V416.156C361.875 421.153 357.825 425.203 352.828 425.203H280.453C275.457 425.203 271.406 421.153 271.406 416.156V407.109Z" fill="white"/>
</g>
</g>
<defs>
<clipPath id="clip0_1_486">
<rect width="579" height="579" rx="289.5" fill="white"/>
</clipPath>
<clipPath id="clip1_1_486">
<rect width="579" height="579" fill="white"/>
</clipPath>
<clipPath id="clip2_1_486">
<rect width="579" height="579" fill="white"/>
</clipPath>
<clipPath id="clip3_1_486">
<rect width="579" height="579" fill="white"/>
</clipPath>
<clipPath id="clip4_1_486">
<rect y="-9.04688" width="579" height="579" rx="289.5" fill="white"/>
</clipPath>
<clipPath id="clip5_1_486">
<rect width="579" height="579" fill="white" transform="translate(9.04688)"/>
</clipPath>
</defs>
</svg>
